<svg width="53" height="210" version="1.1" xmlns="http://www.w3.org/2000/svg" desc="Created with imagetracer.js version 1.2.5" ><path d="M 47.5 31 L 49 32.5 L 49 54.5 L 48 55.5 L 47 70.5 L 45 75.5 L 42 112.5 L 39 124.5 L 39 142 L 30.5 142 L 14 134.5 L 11 130.5 Q 9.5 121.5 5 115.5 L 5 95.5 L 9 81.5 L 16.5 73 L 25.5 72 L 26.5 73 L 43 73 L 45 61.5 L 45 53.5 L 46 52.5 L 46 32.5 L 47.5 31 Z M 20 75 L 15 80 Q 16 82 13 81 L 8 97 L 8 115 L 16 132 L 19 134 L 22 134 L 32 139 L 36 139 L 36 124 L 39 112 L 40 91 L 41 90 L 42 76 L 20 75 Z " /></svg>