<svg width="66" height="210" version="1.1" xmlns="http://www.w3.org/2000/svg" desc="Created with imagetracer.js version 1.2.5" ><path d="M 35.5 30 L 47.5 30 L 52 33.5 L 52 50.5 L 48.5 56 L 38.5 56 L 37 54.5 L 38.5 53 L 46.5 53 L 48 51.5 L 49 48.5 L 49 35 Q 45.9 35.8 46.5 33 L 37 33 L 37 43.5 L 35 46.5 L 34 78.5 L 33 79.5 L 32 96.5 L 31 97.5 L 51.5 98 Q 54.4 100.6 60.5 100 L 62 101.5 Q 62.5 104.5 55.5 103 L 50.5 101 L 31 101 L 30 104.5 L 28 133.5 L 25 139 L 22 137.5 L 25 131.5 L 27 103.5 L 28 101 L 6.5 101 L 5 99.5 L 6.5 98 L 28 98 L 29 95.5 L 29 86.5 L 31 77.5 L 32 45.5 Q 35.7 41.2 34 31.5 L 35.5 30 Z " /></svg>