<svg width="75" height="210" version="1.1" xmlns="http://www.w3.org/2000/svg" desc="Created with imagetracer.js version 1.2.5" ><path d="M 12.5 70 Q 23 68 25 74.5 L 29.5 85 L 33.5 79 L 44.5 73 L 56.5 73 L 67 88.5 L 69 94.5 L 71 143 L 68 142.5 L 68 125.5 L 67 124.5 L 67 111.5 L 66 110.5 L 66 95.5 L 64 89.5 L 54.5 76 L 46.5 76 L 35 82 L 30 91.5 L 32 98.5 L 32 106.5 L 34 116.5 L 34 143 L 31 142.5 L 31 117.5 L 30 116.5 L 29 99.5 L 25 80.5 L 19.5 73 Q 13.4 71.8 14 74.5 L 9 78.5 L 8 83 L 5 81.5 L 8.5 74 L 11 72.5 L 12.5 70 Z " /></svg>