<svg width="83" height="210" version="1.1" xmlns="http://www.w3.org/2000/svg" desc="Created with imagetracer.js version 1.2.5" ><path d="M 29.5 74 L 44 74 L 44 103.5 L 45 104.5 L 46 117.5 L 48 120.5 L 48 127.5 L 50 131.5 L 49 133.5 L 51 141.5 L 54 146.5 L 55 174.5 L 56.5 178 L 63 170.5 L 69 156.5 L 72 153.5 Q 71 149 73.5 148 L 77.5 147 L 79 149.5 L 75 151 L 75 154.5 Q 70 158.5 69 166.5 L 66 169.5 L 66 173 L 63 174.5 L 57 185 L 53 182.5 L 51 147.5 L 48 142.5 L 46 133 Q 41.5 132.8 39.5 136 L 23.5 136 L 22.5 135 L 13.5 135 L 7 131.5 L 5 128.5 L 5 110.5 L 7 107.5 L 7 103.5 L 11 91.5 L 24.5 76 L 29.5 74 Z M 32 77 L 27 79 L 13 95 L 10 110 L 8 113 L 8 128 L 15 132 L 24 132 L 25 133 L 38 133 L 45 130 L 45 122 L 43 119 L 42 106 L 41 105 L 41 77 L 32 77 Z " /></svg>