<svg width="54" height="210" version="1.1" xmlns="http://www.w3.org/2000/svg" desc="Created with imagetracer.js version 1.2.5" ><path d="M 32.5 72 L 35 73.5 L 33.5 76 L 20.5 78 L 9 88.5 L 8 94.5 L 11 99 L 14 100.5 L 15.5 103 L 30.5 111 L 38.5 112 L 50 119.5 L 50 137.5 L 48.5 138 Q 45.6 142.6 39.5 144 L 18.5 145 Q 17.4 142.2 14 143 Q 14.8 139.2 11.5 138 L 9 136.5 L 6 129.5 Q 7.5 126.5 9 129.5 Q 12.3 137.7 19.5 142 L 38.5 141 L 47 134.5 L 47 120.5 L 45.5 120 L 37.5 115 L 29.5 114 L 17.5 109 L 8 99.5 Q 3.5 97 5 88.5 L 14.5 78 L 18.5 75 L 32.5 72 Z " /></svg>