<svg width="71" height="210" version="1.1" xmlns="http://www.w3.org/2000/svg" desc="Created with imagetracer.js version 1.2.5" ><path d="M 34.5 29 Q 37.8 30.8 36 37.5 L 35 38.5 L 34 51 L 57.5 51 Q 59.3 53.8 65.5 52 L 67 53.5 Q 68.1 56.8 65.5 56 L 56.5 54 L 33 54 L 30 67.5 L 29 83.5 L 27 88.5 L 26 134.5 L 31.5 139 L 45.5 139 L 49.5 138 L 54 133.5 L 58.5 121 Q 61.8 122.8 60 129.5 L 57 136 Q 54.3 134.9 55 137.5 L 47.5 142 L 30.5 142 L 23 135.5 L 24 86.5 L 26 82.5 L 27 66.5 L 29 56 L 11.5 56 L 6.5 58 L 5 55.5 L 10.5 53 L 27.5 53 L 31 50.5 L 33 30.5 L 34.5 29 Z " /></svg>