<svg width="73" height="210" version="1.1" xmlns="http://www.w3.org/2000/svg" desc="Created with imagetracer.js version 1.2.5" ><path d="M 6.5 71 L 9 72.5 L 8 74.5 L 8 120.5 Q 9.7 128.3 14.5 133 Q 20.4 135.6 30.5 134 L 39 126.5 L 43 118.5 L 44 109.5 L 46 106.5 L 47 89.5 L 48 88.5 L 48 76.5 L 49.5 75 L 51 76.5 L 51 95.5 L 49 101.5 L 49 129.5 L 56.5 135 L 67.5 135 L 69 136.5 L 68.5 138 L 55.5 138 L 48 133.5 L 46 130.5 L 45.5 121 L 43 123.5 L 43 126.5 L 41 130 Q 38.3 128.9 39 131.5 L 32.5 137 L 16.5 137 L 10 132.5 L 5 121.5 L 5 72.5 L 6.5 71 Z " /></svg>