<svg width="97" height="210" version="1.1" xmlns="http://www.w3.org/2000/svg" desc="Created with imagetracer.js version 1.2.5" ><path d="M 6.5 72 L 8 73.5 L 8 85.5 L 10 89.5 L 10 94.5 L 13 102.5 L 15 117.5 L 18 122.5 L 20 135 Q 22.7 136.1 22 133.5 L 28 128.5 L 42.5 109 L 46 111.5 L 50.5 119 L 53 120.5 L 63.5 137 Q 65.8 137.8 65 135.5 L 72 125.5 L 85 98.5 L 89 88.5 L 89 77.5 L 90.5 76 L 93 77.5 Q 90.3 81.3 92 89.5 L 88 100.5 L 83 108.5 L 83 111.5 L 78 118.5 L 75 127.5 L 70 133.5 L 70 137 Q 67.3 135.9 68 138.5 L 67 141 Q 62 141.8 60 138.5 L 55 128.5 L 45 117.5 L 43.5 114 L 30 132 L 25 135.5 L 24 141.5 L 22.5 143 Q 17.7 144.7 19 140.5 L 15 127.5 L 15 123.5 L 12 118.5 L 10 103.5 L 5 86.5 L 5 73.5 L 6.5 72 Z " /></svg>