<svg width="60" height="210" version="1.1" xmlns="http://www.w3.org/2000/svg" desc="Created with imagetracer.js version 1.2.5" ><path d="M 54.5 74 Q 57.5 75.5 56 81.5 L 55 82.5 L 55 108.5 Q 52.1 113.1 53 121.5 Q 50 124.5 50 130.5 L 52 135 L 48 135 L 48 136.5 L 40 152.5 L 39 159.5 Q 35.2 160.7 36 165 L 29 170.5 L 21.5 182 Q 14.5 183.5 13 179.5 L 12 173.5 L 10 170.5 L 10 156.5 Q 12.3 155.3 11 150.5 L 12.5 149 Q 15.5 150.5 14 156.5 L 13 157.5 L 13 169.5 L 15 172.5 L 16 179 Q 19.8 180 21 177.5 L 24 171.5 L 36 157.5 L 37 151.5 L 43 141.5 L 43 137.5 L 46 131 L 27 119.5 L 21 112.5 L 14.5 99 L 12 97.5 L 10.5 95 L 8 93.5 Q 3.5 89 5 78.5 Q 6.5 75.5 8 78.5 L 8 86.5 Q 11.5 95 19 99.5 L 24 112 L 27 113.5 L 31.5 119 L 40.5 123 L 46.5 128 L 50 119.5 L 50 113.5 L 52 106.5 L 52 81.5 Q 54.3 80.3 53 75.5 L 54.5 74 Z " /></svg>