<svg width="75" height="210" version="1.1" xmlns="http://www.w3.org/2000/svg" desc="Created with imagetracer.js version 1.2.5" ><path d="M 9.5 75 L 61.5 75 L 63 76.5 L 59.5 82 L 56 84.5 L 49.5 94 Q 47.3 93.3 48 95.5 L 29.5 115 Q 27.3 114.3 28 116.5 L 23 120.5 Q 24.1 123.8 21.5 123 L 11 132.5 L 9 135.5 L 20.5 136 Q 22.3 133.2 28.5 135 L 32.5 133 L 69.5 133 L 71 136 L 33.5 136 L 29.5 138 Q 23.3 136.3 21.5 139 L 6.5 139 L 5 135.5 L 11.5 127 L 20 121 L 20 119.5 L 49 89.5 L 56.5 79 L 58 78.5 L 9.5 78 L 8 76.5 L 9.5 75 Z " /></svg>