<svg width="76" height="210" version="1.1" xmlns="http://www.w3.org/2000/svg" desc="Created with imagetracer.js version 1.2.5" ><path d="M 50.5 31 L 52 32.5 L 52 44.5 L 64 61.5 L 67 71.5 L 69 98.5 L 72 115.5 L 72 142 L 69 140.5 L 69 116.5 L 68 115.5 L 68 109 L 46.5 109 L 45.5 108 L 30.5 107 Q 27.3 104 21 105 L 18 113.5 L 18 119 Q 15.3 117.9 16 120.5 L 9 134.5 L 8 143 L 5 143 L 5 136.5 L 15 116.5 L 15 111.5 L 17 109.5 L 20 98.5 L 31 81.5 L 37 69.5 L 37 66.5 L 41 61.5 L 42 55.5 L 46 47.5 L 46 39.5 L 49 36.5 Q 48 32 50.5 31 Z M 50 46 L 47 54 Q 48 57 45 56 L 44 63 Q 40 66 39 74 L 23 102 L 48 106 L 67 106 L 63 68 Q 58 55 50 46 Z " /></svg>