<svg width="44" height="210" version="1.1" xmlns="http://www.w3.org/2000/svg" desc="Created with imagetracer.js version 1.2.5" ><path d="M 6.5 29 L 7.5 30 L 24.5 31 L 35 37.5 L 36 39.5 L 36 62.5 L 35 63.5 L 34 79.5 L 29.5 86 L 23 88.5 Q 29.8 88.2 33 91.5 L 40 104.5 L 40 120.5 L 35 131 L 33 131 Q 34.5 134.7 31.5 134 Q 22.2 143.9 5 145 L 5 30.5 L 6.5 29 Z M 8 33 L 8 88 L 15 86 L 21 86 L 28 83 L 30 81 L 32 74 L 33 41 L 24 34 L 8 33 Z M 8 91 L 8 142 L 16 140 L 30 132 L 37 120 Q 39 104 33 97 L 28 92 L 12 92 L 8 91 Z " /></svg>