<svg width="78" height="210" version="1.1" xmlns="http://www.w3.org/2000/svg" desc="Created with imagetracer.js version 1.2.5" ><path d="M 42.5 29 L 57.5 29 L 59 30.5 L 58.5 32 L 44.5 32 L 34 35 Q 35.1 37.7 32.5 37 Q 24.6 39.1 21 45.5 L 16 54.5 L 8 79.5 L 8 95.5 L 11 104.5 L 14 107.5 L 14 110.5 L 20.5 119 L 48.5 133 L 52.5 134 L 72.5 134 L 74 135.5 L 73.5 137 L 51.5 137 L 37.5 132 L 23 124.5 Q 23.8 122.3 21.5 123 L 16 118.5 L 11 111.5 L 11 108.5 L 8 105.5 L 5 96.5 L 5 77.5 L 7 74.5 L 7 70.5 L 9 67.5 L 13 52.5 L 18 43.5 L 24.5 37 L 32.5 32 L 42.5 29 Z " /></svg>