<svg width="76" height="210" version="1.1" xmlns="http://www.w3.org/2000/svg" desc="Created with imagetracer.js version 1.2.5" ><path d="M 69.5 28 L 72 29.5 L 72 31 L 70 31.5 L 70 36.5 L 67 52.5 L 67 84.5 L 66 89.5 L 67 91.5 L 66 92.5 L 66 147 L 63 145.5 L 63 92 L 40.5 92 L 36.5 94 L 11 94 L 11 120.5 L 9 126.5 L 8 144 L 5 142.5 L 6 125.5 L 8 118.5 L 8 85.5 L 9 84.5 L 9 63.5 L 10 62.5 L 10 31.5 L 11.5 30 L 13 31.5 L 13 63.5 L 12 64.5 L 12 86.5 L 11 91 L 35.5 91 L 38.5 89 L 63 89 L 64 83.5 L 64 50.5 L 65 49.5 L 67 30.5 L 69.5 28 Z " /></svg>