<svg width="94" height="210" version="1.1" xmlns="http://www.w3.org/2000/svg" desc="Created with imagetracer.js version 1.2.5" ><path d="M 6.5 30 L 75.5 30 L 76.5 31 L 88.5 31 L 90 32.5 L 89.5 34 L 75.5 34 L 74.5 33 L 52 33 L 52 52.5 L 53 53.5 L 53 63.5 L 55 68.5 L 55 80.5 L 56 81.5 L 56 122.5 L 52 137.5 L 49 144 Q 39.4 149.1 21.5 147 L 15 141.5 L 12 136.5 L 12 116.5 Q 13.5 113.5 15 116.5 L 15 135.5 L 22.5 144 L 38.5 144 L 44.5 142 L 47 139.5 L 49 136.5 L 51 125.5 L 53 121.5 L 53 82.5 L 52 81.5 L 52 69.5 L 50 64.5 L 50 54.5 L 49 53.5 L 49 33 L 6.5 33 L 5 31.5 L 6.5 30 Z " /></svg>