<svg width="73" height="210" version="1.1" xmlns="http://www.w3.org/2000/svg" desc="Created with imagetracer.js version 1.2.5" ><path d="M 9.5 30 L 24 45.5 L 28 58.5 L 31 62.5 L 34 72.5 L 34 77.5 L 36.5 82 L 42 67.5 L 58.5 40 L 62 37.5 L 67.5 30 L 69 31.5 L 69 145 L 66 143.5 L 65.5 38 L 61.5 43 Q 59.3 42.3 60 44.5 L 58 48 Q 55.3 46.9 56 49.5 L 53 58 Q 50 56.8 51 60.5 Q 45 66.5 43 76.5 L 40 79.5 L 39 88 Q 35.2 89 34 86.5 L 31 78.5 L 28 63.5 L 25 59.5 L 22 48.5 L 11.5 36 L 11 124.5 Q 7.4 131.4 9 143.5 L 7.5 145 L 5 143.5 L 6 141.5 L 6 129.5 L 8 123.5 L 8 31.5 L 9.5 30 Z " /></svg>