<svg width="73" height="210" version="1.1" xmlns="http://www.w3.org/2000/svg" desc="Created with imagetracer.js version 1.2.5" ><path d="M 7.5 29 L 16 36.5 L 23.5 52 Q 25.8 51.3 25 53.5 L 35 68.5 L 41 81.5 L 44 84.5 L 51 99.5 L 51 102.5 L 59 115.5 L 59 118.5 L 63.5 129 L 66 122.5 L 66 30.5 L 67.5 29 L 69 30.5 L 69 123.5 L 67 126.5 L 66 142 Q 61.1 143.8 63 137.5 L 61 130.5 L 59 128.5 L 56 116.5 L 49 106.5 L 48 100.5 L 41 85.5 L 38 82.5 L 38 80.5 L 23 55.5 L 19 51.5 L 14 39.5 L 9.5 35 L 8 40.5 L 8 107.5 L 9 108.5 L 9 144 L 6 142.5 L 5 39.5 L 6 38.5 L 6 30.5 L 7.5 29 Z " /></svg>