<svg width="101" height="210" version="1.1" xmlns="http://www.w3.org/2000/svg" desc="Created with imagetracer.js version 1.2.5" ><path d="M 49.5 25 L 58.5 25 L 65 29.5 L 73 43.5 L 80 60.5 L 89 72.5 L 97 87.5 L 97 110.5 L 94 115.5 L 93 122.5 L 84.5 134 L 81.5 136 L 74 138 L 72.5 141 L 65.5 146 L 42.5 146 L 39.5 144 L 33.5 144 L 29.5 142 L 17 130.5 L 10 121.5 L 5 109.5 L 5 78.5 L 6 77.5 L 6 69.5 Q 9.8 64.8 10 56.5 L 16 45.5 L 21.5 39 L 36.5 30 L 46.5 29 L 48 27.5 L 49.5 25 Z M 52 28 L 52 29 L 56 29 L 52 28 Z M 60 30 L 52 33 Q 47 34 46 32 L 36 34 L 28 39 L 25 41 L 18 49 L 13 59 L 11 69 L 9 72 L 9 80 L 8 81 L 8 109 L 12 119 L 26 136 L 36 141 Q 42 140 45 143 L 64 143 L 74 135 L 81 133 L 89 123 Q 90 114 94 110 L 94 89 L 89 79 L 84 73 L 84 71 L 74 57 L 74 54 L 72 52 L 70 45 L 63 35 L 63 33 L 60 30 Z " /></svg>