<svg width="66" height="210" version="1.1" xmlns="http://www.w3.org/2000/svg" desc="Created with imagetracer.js version 1.2.5" ><path d="M 8.5 31 L 10.5 33 L 49.5 33 L 56 37.5 L 62 50.5 L 62 65.5 Q 57 69 56 75 Q 53.3 73.9 54 76.5 L 49 80 L 46.5 85 L 36.5 93 L 18 100 L 18 109.5 L 19 110.5 L 19 146 L 16 144.5 L 16 111.5 L 15 110.5 L 15 100.5 L 14 99.5 L 14 88.5 L 9 73.5 L 9 66.5 L 7 59.5 L 7 36.5 L 5 34.5 L 8.5 31 Z M 10 36 L 10 59 L 12 66 L 13 78 L 17 88 L 18 97 L 28 92 L 32 92 L 44 83 L 54 72 L 54 70 L 59 64 L 59 52 L 53 38 Q 50 39 49 36 L 10 36 Z " /></svg>