<svg width="101" height="210" version="1.1" xmlns="http://www.w3.org/2000/svg" desc="Created with imagetracer.js version 1.2.5" ><path d="M 48.5 28 L 54 31.5 L 70 58.5 L 72 67.5 L 72 78.5 L 73 79.5 L 73 101 Q 75.7 99.9 75 102.5 Q 81.5 110 85 120.5 L 91 128 L 97 130.5 Q 97.9 133.5 93.5 132 L 88 128.5 L 82 121.5 L 73.5 105 Q 73.8 111.3 71 114.5 L 71 119.5 L 64 133 L 57.5 135 L 54.5 138 L 40.5 138 L 23.5 130 L 10 119.5 L 5 109.5 L 5 76.5 L 6 75.5 L 6 67.5 L 9 51.5 L 20.5 38 L 33.5 31 L 46.5 30 L 48.5 28 Z M 50 32 L 49 33 L 35 34 L 24 40 L 12 54 L 9 70 L 9 78 L 8 79 L 8 109 L 14 120 L 25 127 L 42 135 L 53 135 L 59 132 L 63 128 L 68 119 Q 67 112 70 110 L 70 102 L 64 97 L 61 97 L 57 94 L 49 91 L 45 91 L 43 90 L 45 87 L 69 96 L 70 97 L 69 69 L 67 60 L 61 50 Q 62 46 59 47 L 59 45 L 51 34 Q 52 31 50 32 Z " /></svg>