<svg width="66" height="210" version="1.1" xmlns="http://www.w3.org/2000/svg" desc="Created with imagetracer.js version 1.2.5" ><path d="M 7.5 29 L 9.5 31 L 25.5 31 L 26.5 30 L 43.5 30 Q 51.8 33.2 57 39.5 L 62 48.5 L 62 69 Q 58.7 67.7 60 72.5 L 54.5 79 L 51.5 81 L 43.5 88 L 26 93.5 L 37.5 94 L 42 98.5 L 57 122.5 L 60 133.5 L 62 135.5 L 62 144 L 59 142.5 L 59 136.5 L 57 134.5 L 55 126.5 L 49 114.5 Q 43.8 104.2 35.5 97 L 8 99 L 8 144.5 L 6.5 145 L 5 143.5 L 5 36.5 Q 7.3 35.3 6 30.5 L 7.5 29 Z M 28 33 L 27 34 L 9 34 L 8 38 L 8 96 L 16 93 L 23 92 L 25 90 L 36 88 L 51 78 L 56 73 L 59 67 L 59 50 L 54 40 L 43 33 L 28 33 Z " /></svg>