<svg width="70" height="210" version="1.1" xmlns="http://www.w3.org/2000/svg" desc="Created with imagetracer.js version 1.2.5" ><path d="M 30.5 28 L 46.5 29 L 56 36.5 Q 57.1 39.8 54.5 39 L 48 34.5 Q 48.8 32.3 46.5 33 Q 41.4 29.6 31.5 31 L 27.5 32 L 18 38.5 L 13 45.5 L 13 48.5 L 9 55.5 L 8 74.5 L 13.5 81 L 26.5 91 L 38.5 95 L 40.5 97 L 50.5 99 L 57.5 104 L 61.5 105 L 66 109.5 L 66 128.5 L 61.5 135 L 56.5 139 L 53.5 139 L 40.5 144 L 21.5 144 L 12 138.5 L 9 132.5 L 9 117.5 Q 11 113 13 116.5 Q 10.5 122 12 131.5 L 16.5 138 L 22.5 141 L 39.5 141 L 54.5 136 L 61 130.5 L 63 127.5 L 63 110 L 49.5 102 L 39.5 100 L 37.5 98 L 25.5 94 L 8 79.5 Q 8.8 77.3 6.5 78 L 5 76.5 L 5 59.5 Q 7.3 58.3 6 53.5 L 10 46.5 L 10 43.5 L 18.5 33 L 30.5 28 Z " /></svg>