<svg width="77" height="210" version="1.1" xmlns="http://www.w3.org/2000/svg" desc="Created with imagetracer.js version 1.2.5" ><path d="M 71.5 29 Q 74.3 30.3 73 35.5 L 71 43.5 L 71 62.5 L 70 63.5 L 70 74.5 L 69 75.5 L 69 89.5 L 68 90.5 L 66 110.5 L 62 117.5 L 59 127.5 L 50.5 139 Q 48.3 138.3 49 140.5 L 46.5 143 L 33.5 143 L 23 135.5 L 12 116.5 L 8 97.5 L 5 91.5 L 5 60.5 Q 7.5 59 6 53.5 L 9 47.5 L 10 31.5 L 11.5 30 L 13 31.5 L 13 43.5 L 11 54 Q 7.5 52.9 9 60.5 L 8 61.5 L 8 90.5 L 11 96.5 L 15 115.5 L 24 131.5 L 29.5 137 Q 33.6 141.9 44.5 140 L 55 127.5 Q 59.3 122.3 60 113.5 L 63 109.5 L 65 88.5 L 66 87.5 L 67 62.5 L 68 61.5 L 68 41.5 L 70 30.5 L 71.5 29 Z " /></svg>