<svg width="99" height="210" version="1.1" xmlns="http://www.w3.org/2000/svg" desc="Created with imagetracer.js version 1.2.5" ><path d="M 6.5 29 L 8 30.5 L 8 39.5 L 18 56.5 L 20 64.5 L 28 80.5 L 29 85.5 L 37 100.5 L 38 107.5 L 41 112.5 L 44 127.5 L 47.5 136 L 51 129.5 L 51 124.5 L 56 113.5 L 56 108.5 L 59 99.5 L 63 93.5 L 63 90.5 L 67 86.5 L 78 61.5 L 82 56.5 L 82 52.5 L 88 42.5 L 88 38.5 L 93.5 29 Q 96 30 95 34.5 L 85 54.5 L 84 60.5 L 81 63.5 L 61 103.5 L 59 114.5 Q 56 117.5 56 123.5 L 54 125.5 L 54 130.5 L 47.5 144 L 45 142.5 L 45 138.5 L 43 135.5 L 43 131.5 L 41 128.5 L 41 124.5 Q 38 120.5 38 113.5 L 35 108.5 L 34 101.5 L 26 86.5 L 25 81.5 L 17 65.5 L 15 57.5 L 12 54.5 L 12 51.5 L 5 40.5 L 5 30.5 L 6.5 29 Z " /></svg>