<svg width="64" height="210" version="1.1" xmlns="http://www.w3.org/2000/svg" desc="Created with imagetracer.js version 1.2.5" ><path d="M 7.5 30 L 9 32.5 L 8 33.5 L 8 66.5 L 10 71.5 L 11 84.5 L 12.5 86 L 18.5 78 L 23.5 74 L 32.5 70 L 44.5 70 L 54 76.5 L 55.5 79 L 58 80.5 L 60 84.5 L 60 119.5 L 48 144 L 41.5 147 L 13.5 147 L 10 142.5 L 10 90.5 L 8 85.5 L 7 72.5 L 5 67.5 L 5 32.5 L 7.5 30 Z M 34 73 Q 32 77 27 76 L 22 81 L 19 81 Q 19 86 15 89 L 15 93 L 13 95 L 13 137 L 14 138 L 14 144 L 41 144 L 43 143 L 47 139 L 54 126 L 54 122 L 57 118 L 57 86 L 51 78 Q 46 71 34 73 Z " /></svg>