<svg width="105" height="210" version="1.1" xmlns="http://www.w3.org/2000/svg" desc="Created with imagetracer.js version 1.2.5" ><path d="M 90.5 22 L 92.5 22 L 97 26.5 L 99 33.5 L 99 45.5 L 100 46.5 L 101 115.5 L 98 129.5 L 86 151.5 L 86 155.5 L 91.5 165 L 99 169.5 L 97.5 173 Q 90 171.6 86 166.5 L 81.5 158 L 75.5 164 L 53.5 177 L 42.5 180 L 31.5 180 Q 18.9 177.6 13 168.5 L 6 157.5 Q 3.7 152.7 5 144.5 L 8 136.5 L 10.5 134 L 16.5 129 L 58.5 128 L 60 131.5 L 58.5 133 L 18.5 134 L 12 139.5 L 10 144.5 L 10 153.5 Q 14.3 164.2 22.5 171 L 31.5 175 L 41.5 175 Q 64.7 168.7 79 153.5 L 80 148.5 L 78 137.5 L 77 112.5 L 78 111.5 L 79 83.5 L 80 82.5 L 82 58.5 L 83 57.5 L 87 28.5 L 90.5 22 Z M 93 29 L 86 66 L 85 84 L 84 85 L 84 98 L 83 99 L 83 112 L 82 113 L 82 126 L 83 127 L 83 138 L 85 145 L 93 129 L 96 115 L 95 47 L 94 46 L 94 34 L 93 29 Z " /></svg>