<svg width="74" height="210" version="1.1" xmlns="http://www.w3.org/2000/svg" desc="Created with imagetracer.js version 1.2.5" ><path d="M 40.5 116 L 53.5 116 L 60.5 119 L 67 125.5 L 70 133.5 L 70 144.5 L 66.5 150 L 36.5 172 L 31.5 174 L 30 170.5 L 65 144.5 Q 67 128 57.5 123 L 52.5 121 L 40.5 121 Q 27.6 126.1 19 135.5 Q 10 144.5 10 162.5 L 13 175.5 L 17.5 181 L 35.5 188 L 57.5 189 L 59 190.5 L 57.5 194 L 34.5 193 L 19.5 188 L 11 181.5 Q 4.3 171.2 5 153.5 Q 9 136.5 20.5 127 Q 28.4 119.4 40.5 116 Z " /></svg>