<svg width="128" height="210" version="1.1" xmlns="http://www.w3.org/2000/svg" desc="Created with imagetracer.js version 1.2.5" ><path d="M 67.5 34 L 71 35.5 L 76 75.5 L 72.5 77 L 70 70.5 L 70 63.5 L 69 62.5 L 66.5 40 L 59 46.5 L 51 58.5 L 47 73.5 L 46 90.5 L 45 91.5 L 44 124.5 L 45.5 124 Q 65.8 121.8 82.5 116 L 87.5 116 L 99.5 112 L 122.5 111 L 124 114.5 L 122.5 116 L 100.5 117 L 92.5 120 L 82.5 121 L 69.5 125 L 45.5 129 L 44 130.5 L 44 182.5 Q 48.3 185.7 47 194.5 L 43.5 196 L 39 183.5 L 39 131 L 6.5 137 L 5 133.5 L 10.5 131 L 39 126 L 39 114.5 L 40 113.5 L 40 90.5 L 41 89.5 L 41 80.5 L 44 63.5 Q 49.5 46 62.5 36 L 67.5 34 Z " /></svg>