<svg width="124" height="210" version="1.1" xmlns="http://www.w3.org/2000/svg" desc="Created with imagetracer.js version 1.2.5" ><path d="M 28.5 81 L 65.5 88 L 75 91.5 L 73.5 95 L 60 93 L 64 106.5 L 64.5 137 L 99.5 110 L 112.5 98 L 118.5 95 L 120 98.5 L 65 143.5 L 65 170.5 Q 62.3 172.3 64 178.5 Q 60.2 184.2 60 193.5 L 53.5 210 Q 48.1 211.9 49 208.5 L 59 177.5 Q 57.5 172 60 170.5 L 60 148.5 L 58.5 149 Q 43.1 159.6 31 173.5 Q 20 184.5 20 206.5 L 21 210 L 16 210 L 16 207.5 L 15 206.5 L 15 198.5 L 17 188.5 L 22 177.5 Q 30.9 163.9 43.5 154 L 59 141.5 L 59 106.5 L 56.5 100 L 50 113.5 L 42.5 121 L 25.5 127 L 16.5 127 Q 9.3 125.2 6 119.5 L 5 111.5 Q 11.1 94.1 24.5 84 L 28.5 81 Z M 31 86 L 28 88 Q 16 97 10 113 L 11 118 L 18 122 L 26 122 L 40 117 L 47 109 L 52 96 L 55 92 L 31 86 Z " /></svg>