<svg width="98" height="210" version="1.1" xmlns="http://www.w3.org/2000/svg" desc="Created with imagetracer.js version 1.2.5" ><path d="M 34.5 48 L 38 49.5 L 36 58.5 L 22 98.5 L 21 111.5 L 17 128.5 L 16 146.5 L 13 160.5 L 11 182.5 L 12 182.5 Q 18.4 161.9 31.5 148 L 49.5 133 Q 55.6 129.6 66.5 131 Q 73.7 132.8 77 138.5 L 83 148.5 L 86 160.5 L 90 169.5 L 94 188.5 L 90.5 190 L 87 182.5 L 85 170.5 L 78 149.5 L 68.5 137 Q 63.8 134.8 55.5 136 L 49.5 139 L 32 154.5 L 22 170.5 L 12 196.5 L 8.5 200 L 5 198.5 L 5 184.5 L 7 176.5 L 7 167.5 L 10 154.5 L 11 136.5 L 16 111.5 L 17 98.5 L 33 49.5 L 34.5 48 Z " /></svg>