<svg width="60" height="210" version="1.1" xmlns="http://www.w3.org/2000/svg" desc="Created with imagetracer.js version 1.2.5" ><path d="M 47.5 49 L 54 52.5 Q 53.1 59.1 48.5 62 L 45 60.5 L 47 55.5 L 46 50.5 L 47.5 49 Z " /><path d="M 51.5 92 L 55 93.5 L 56 165.5 L 51 183.5 L 45.5 190 L 35.5 194 L 27.5 194 L 22.5 192 L 9 178.5 L 5 167.5 L 5 161.5 L 8.5 160 L 10 161.5 L 10 167.5 L 13 175.5 L 24.5 187 Q 27.4 190.6 35.5 189 L 45 183.5 L 47 180.5 L 51 165.5 L 51 119.5 L 50 118.5 L 50 93.5 L 51.5 92 Z " /></svg>