<svg width="89" height="210" version="1.1" xmlns="http://www.w3.org/2000/svg" desc="Created with imagetracer.js version 1.2.5" ><path d="M 13.5 63 L 17 64.5 L 15 96.5 L 14 97.5 L 14 109.5 L 13 110.5 L 13 121.5 L 12 122.5 L 11 138.5 L 10 139.5 L 10 158.5 L 14 175.5 L 10.5 177 L 7 169.5 L 5 159.5 L 5 139.5 L 7 130.5 L 8 110.5 L 9 109.5 L 11 72.5 Q 13.8 70.8 12 64.5 L 13.5 63 Z " /><path d="M 80.5 109 L 84 110.5 L 82.5 114 L 26 147.5 Q 25.2 150.1 28.5 149 L 48.5 159 L 75.5 182 L 85 187.5 L 83.5 191 Q 77 190.5 73.5 187 L 52.5 168 L 40.5 160 L 35.5 159 L 21.5 152 L 17 147.5 L 18.5 144 L 22.5 144 Q 27.6 137.6 37.5 136 L 80.5 109 Z " /></svg>