<svg width="69" height="210" version="1.1" xmlns="http://www.w3.org/2000/svg" desc="Created with imagetracer.js version 1.2.5" ><path d="M 36.5 60 L 40 61.5 L 40 66.5 L 42 71.5 L 43 83.5 L 44 84.5 L 45 99.5 L 46 100.5 L 46 115.5 L 45 116.5 L 44 129.5 Q 48.4 145.6 58.5 156 L 65 160.5 L 63.5 164 Q 55.2 162.8 52 156.5 Q 45.1 148.4 41.5 137 L 36 146.5 L 8.5 178 L 5 176.5 L 8 170.5 L 35 139.5 L 38 130.5 L 38 124.5 L 35 113.5 L 34 96.5 L 33 95.5 L 33 66.5 L 36.5 60 Z M 39 85 L 38 96 L 39 97 L 40 114 L 41 114 L 41 102 L 40 101 L 39 85 Z " /></svg>