<svg width="128" height="210" version="1.1" xmlns="http://www.w3.org/2000/svg" desc="Created with imagetracer.js version 1.2.5" ><path d="M 46.5 116 Q 56.3 115.7 59 122.5 L 67.5 143 Q 71 133.5 78.5 128 Q 85.3 122.3 98.5 123 Q 104.3 124.3 107 128.5 L 112 138.5 L 115 151.5 L 124 177.5 L 120.5 179 L 117 173.5 L 107 139.5 L 100.5 129 L 91.5 128 L 86.5 129 L 76 137.5 L 68 152.5 L 68 160.5 L 66.5 162 L 63 160.5 Q 63.9 133.6 50.5 121 Q 38.7 123.2 33 131.5 L 23 148.5 L 17 169.5 L 17 175.5 L 15.5 177 L 12 175.5 L 12 164.5 L 11 163.5 L 11 157.5 L 9 150.5 L 5 121.5 L 8.5 120 L 11 125.5 L 11 131.5 L 15.5 157 L 23 136.5 L 35.5 122 L 46.5 116 Z " /></svg>