<svg width="82" height="210" version="1.1" xmlns="http://www.w3.org/2000/svg" desc="Created with imagetracer.js version 1.2.5" ><path d="M 42.5 88 L 46 89.5 Q 44.5 93.9 47.5 93 L 68 110.5 L 77 128.5 L 78 141.5 L 72 158.5 L 65.5 166 L 53.5 175 L 43.5 177 Q 29.3 171.7 21 160.5 L 11 145.5 L 5 130.5 L 5 124.5 L 9 114.5 L 11.5 112 L 36 94 L 37.5 90 Q 41.8 90.8 42.5 88 Z M 41 96 L 15 116 L 10 126 L 11 134 L 17 147 L 25 158 Q 33 167 45 172 L 51 171 L 63 162 Q 71 155 73 142 L 72 129 L 64 114 L 45 97 L 41 96 Z " /></svg>