<svg width="72" height="210" version="1.1" xmlns="http://www.w3.org/2000/svg" desc="Created with imagetracer.js version 1.2.5" ><path d="M 17.5 78 L 21 79.5 L 20 86 L 51.5 81 L 59.5 83 L 65 87.5 Q 69.7 91.3 68 101.5 L 66 109.5 L 55.5 123 L 42.5 132 L 35.5 134 L 29.5 134 L 26 131.5 L 27.5 128 L 34.5 129 L 43.5 126 L 56 115.5 L 62 106.5 L 63 94.5 L 60 89 Q 55.7 86.1 47.5 86 L 19 92 L 15 126.5 L 14 127.5 L 14 198.5 L 13 199.5 L 13 210 L 8 210 L 8 199.5 L 9 198.5 L 9 127.5 L 10 126.5 L 14 93 L 6.5 94 L 5 90.5 L 6.5 89 L 15 88 L 16 79.5 L 17.5 78 Z " /></svg>