<svg width="129" height="210" version="1.1" xmlns="http://www.w3.org/2000/svg" desc="Created with imagetracer.js version 1.2.5" ><path d="M 15.5 109 L 58.5 109 L 60 110.5 L 58.5 114 L 18.5 114 L 16 116.5 L 10 129.5 L 13 135 Q 18.8 139.5 31.5 138 L 37.5 136 L 52.5 124 L 54.5 124 L 58 128.5 L 58 157.5 L 57 158.5 L 57 166.5 L 55 174.5 L 54 188.5 L 51 200.5 L 51 210 L 46 210 L 46 200.5 L 49 187.5 L 51 166.5 L 52 165.5 L 52 157.5 L 53 156.5 L 53 131 L 38.5 141 Q 31.6 144.6 19.5 143 L 8 136.5 L 5 128.5 L 9 118.5 L 15.5 109 Z " /><path d="M 121.5 144 L 125 145.5 Q 123.8 153.8 117.5 157 L 95 178.5 L 65.5 210 L 58 209.5 L 80 188.5 L 113.5 153 L 117 150.5 L 121.5 144 Z " /></svg>