<svg width="91" height="210" version="1.1" xmlns="http://www.w3.org/2000/svg" desc="Created with imagetracer.js version 1.2.5" ><path d="M 69.5 59 L 73 60.5 L 71.5 64 L 36 83.5 L 35 86.5 L 35 104.5 L 37 108 Q 46.6 113.6 60.5 116 L 76.5 124 L 86 132.5 L 87 141.5 L 83 149.5 L 79 164.5 L 69.5 175 L 54.5 181 L 40.5 183 L 25.5 189 L 16.5 190 L 10.5 188 L 8 185.5 L 5 158.5 L 8.5 157 L 10 158.5 L 12 169.5 L 12 177.5 L 14.5 184 L 20.5 185 L 39.5 178 L 56.5 175 L 66.5 171 L 72 165.5 L 75 160.5 L 78 148.5 L 82 141.5 L 82 135 L 71.5 127 L 59.5 121 L 44.5 117 L 32 109.5 L 30 104.5 L 30 86.5 Q 32.3 85.3 31 80.5 L 32.5 79 L 69.5 59 Z " /></svg>