<svg width="114" height="210" version="1.1" xmlns="http://www.w3.org/2000/svg" desc="Created with imagetracer.js version 1.2.5" ><path d="M 58.5 61 L 62 62.5 L 61 98.5 L 62.5 98 L 92.5 93 L 94 96.5 L 88.5 99 L 70.5 101 L 60 104 L 60 135.5 L 61 136.5 L 62 164.5 L 65 175.5 L 67.5 178 Q 72.3 177.8 74 174.5 L 82.5 165 L 101 149.5 L 106.5 143 L 110 144.5 L 110 146.5 L 98.5 159 L 79 175.5 L 73.5 182 L 67.5 183 L 61 178.5 L 58 169.5 L 57 154.5 L 56 153.5 L 54.5 106 L 20.5 119 L 6.5 123 L 5 119.5 L 8.5 117 L 55 101 L 56 98.5 L 57 62.5 L 58.5 61 Z " /></svg>