<svg width="103" height="210" version="1.1" xmlns="http://www.w3.org/2000/svg" desc="Created with imagetracer.js version 1.2.5" ><path d="M 60.5 78 Q 65 77 66 79.5 L 61 90.5 L 52 101.5 L 52 107.5 L 57.5 115 L 69.5 121 L 80.5 123 L 89.5 123 Q 91.3 120.3 97.5 122 L 99 125.5 L 97.5 127 Q 92 125.5 90.5 128 L 79.5 128 L 62.5 124 L 51.5 116 L 46 128.5 L 34.5 142 L 28.5 144 L 22.5 144 L 19 141.5 Q 18.4 135.4 21 132.5 L 44 102.5 L 42.5 103 L 6.5 113 L 5 109.5 L 12.5 106 L 45.5 97 L 48 98 Q 49.3 85.2 58.5 79 L 60.5 78 Z M 46 110 L 26 135 L 25 138 L 25 139 L 33 137 Q 42 129 46 116 L 46 110 Z " /></svg>