<svg width="111" height="210" version="1.1" xmlns="http://www.w3.org/2000/svg" desc="Created with imagetracer.js version 1.2.5" ><path d="M 6.5 75 L 8.5 75 L 37.5 103 L 59.5 90 L 66 83.5 L 68.5 80 Q 72.5 79.5 73 82.5 L 76 89.5 L 78 105.5 L 79.5 107 L 95.5 98 L 105.5 95 L 107 98.5 L 90.5 106 L 79 113 L 78 141.5 L 73 163.5 Q 67.6 181.1 54.5 191 L 42.5 198 L 28.5 200 Q 22.8 198.8 20 194.5 Q 15 186.5 17 171.5 L 22 155.5 Q 31.8 141.3 44.5 130 Q 60.9 121.9 74 110.5 L 72 93.5 L 69.5 87 Q 56.7 101.7 35.5 108 L 5 78.5 L 6.5 75 Z M 74 117 Q 62 127 48 134 L 28 156 L 25 161 L 22 173 Q 20 187 25 193 L 30 195 L 42 193 L 52 187 Q 61 180 66 169 L 71 153 L 73 142 L 73 133 L 74 132 L 74 117 Z " /></svg>