<svg width="115" height="210" version="1.1" xmlns="http://www.w3.org/2000/svg" desc="Created with imagetracer.js version 1.2.5" ><path d="M 45.5 61 Q 61.6 58.9 68 66.5 L 67 74.5 L 62 83.5 L 36 114.5 L 28 129.5 L 26 138 Q 35.8 137.7 42.5 133 L 51.5 132 L 58.5 129 L 94.5 121 L 109.5 116 L 111 119.5 L 107.5 122 L 95.5 126 L 59.5 134 L 52.5 137 L 43.5 138 L 30.5 143 L 20.5 144 Q 18.3 143.3 19 139.5 L 23 128.5 L 32 111.5 L 56 83.5 L 62 73.5 L 63 68 L 56.5 66 L 45.5 66 L 44.5 67 L 34.5 67 L 33.5 68 L 6.5 70 L 5 66.5 L 6.5 65 Q 12 66.5 13.5 64 L 23.5 64 L 34.5 62 L 44.5 62 L 45.5 61 Z " /></svg>