<svg width="137" height="210" version="1.1" xmlns="http://www.w3.org/2000/svg" desc="Created with imagetracer.js version 1.2.5" ><path d="M 78.5 58 L 82 59.5 L 70 116 L 77.5 119 L 81.5 119 L 100.5 112 L 119.5 109 L 131.5 105 L 133 108.5 L 123.5 113 L 101.5 117 L 80 124.5 L 114 145.5 L 112.5 149 L 106.5 147 L 78.5 129 L 71.5 126 L 66 128.5 L 62 140.5 L 44.5 174 L 41 172.5 L 61 129.5 L 58.5 129 L 22.5 138 L 21 134.5 L 25.5 132 L 61.5 124 L 63 122.5 Q 64.5 118.1 61.5 119 L 52 112.5 Q 53.5 108.1 50.5 109 L 5 88.5 L 6.5 85 L 50.5 103 L 64.5 112 L 67 106.5 L 76 62.5 L 78.5 58 Z " /></svg>