<svg width="162" height="210" version="1.1" xmlns="http://www.w3.org/2000/svg" desc="Created with imagetracer.js version 1.2.5" ><path d="M 59.5 27 L 63 28.5 L 87 66.5 L 121 111.5 L 140 139.5 L 157 159.5 L 158 164.5 L 154.5 166 L 144 150.5 L 129 133.5 L 117 114.5 L 96 88.5 L 62.5 39 L 37 91.5 L 32 105 L 52.5 114 L 64.5 115 L 68.5 117 L 76.5 117 L 83.5 120 L 88.5 120 L 108.5 125 L 113.5 125 Q 116.4 127.6 122.5 127 L 124 128.5 L 122.5 132 L 83.5 125 L 75.5 122 L 67.5 122 L 63.5 120 Q 58 121.5 56.5 119 L 34.5 119 L 25.5 117 L 10 148.5 L 10 159.5 L 8.5 161 L 5 159.5 L 5 129.5 L 15 112.5 L 14 109.5 Q 16.3 108.2 13.5 107 L 11 105.5 L 10 97.5 L 13.5 96 L 21.5 100 L 58.5 37 L 61 36.5 L 58 32.5 L 58 28.5 L 59.5 27 Z " /></svg>