<svg width="101" height="210" version="1.1" xmlns="http://www.w3.org/2000/svg" desc="Created with imagetracer.js version 1.2.5" ><path d="M 45.5 45 L 63.5 45 L 79.5 51 L 89 59.5 L 89 74.5 L 88 77.5 Q 81.3 92.3 68.5 101 Q 56.1 112.1 40 119.5 L 47.5 120 L 48.5 119 L 73.5 119 L 89.5 125 L 94 129.5 Q 98.1 132.4 97 140.5 Q 93.3 153.3 83.5 160 L 54.5 178 L 41.5 182 L 24.5 182 L 23 178.5 L 24.5 177 L 41.5 177 L 53.5 173 L 80.5 156 L 87 149.5 Q 92.2 145.2 92 135.5 L 87.5 130 L 80.5 126 L 72.5 124 L 49.5 124 L 48.5 125 L 28.5 125 L 27 121.5 L 52.5 107 Q 67.4 96.9 79 83.5 L 84 74.5 L 84 61.5 Q 77.7 51.8 61.5 52 L 60.5 53 L 47.5 53 L 46.5 54 L 17.5 55 L 16 51.5 L 17.5 50 L 29.5 49 L 45.5 45 Z " /><path d="M 10.5 52 L 14 53.5 Q 13.3 57.8 16 58.5 L 17 72.5 L 18 73.5 L 18 101.5 L 14 120.5 L 14 126.5 L 11 134.5 L 10 175.5 L 8.5 177 L 5 175.5 L 6 133.5 L 10 119.5 L 10 113.5 L 12 106.5 L 12 96.5 L 11 95.5 L 9 53.5 L 10.5 52 Z " /></svg>