<svg width="98" height="210" version="1.1" xmlns="http://www.w3.org/2000/svg" desc="Created with imagetracer.js version 1.2.5" ><path d="M 61.5 59 L 72.5 59 L 73.5 60 L 74.5 59 L 92.5 59 L 94 62.5 L 92.5 64 Q 87.8 62.8 86.5 65 L 44.5 69 Q 31.2 75.2 22 85.5 L 10 108.5 L 10 117.5 L 16 133.5 L 22 142 L 42.5 154 L 68.5 155 L 73.5 154 L 89.5 146 L 91 149.5 L 88.5 152 L 73.5 159 L 68.5 160 L 48.5 160 Q 28.9 155.6 17 143.5 L 9 130.5 L 5 118.5 L 5 107.5 L 14 88.5 L 26.5 74 L 45.5 63 L 61.5 59 Z " /></svg>