<svg width="118" height="210" version="1.1" xmlns="http://www.w3.org/2000/svg" desc="Created with imagetracer.js version 1.2.5" ><path d="M 52.5 44 L 67.5 45 L 79.5 49 L 99 66.5 L 111 85.5 L 114 95.5 L 114 103.5 L 112 114.5 L 105 131.5 Q 98.4 143.9 87.5 152 Q 66.3 169.8 36.5 179 L 35 175.5 L 73.5 157 L 96 136.5 Q 103.4 126.9 107 113.5 L 109 103.5 L 109 95.5 Q 101 72 83.5 58 Q 74.3 49.7 57.5 49 L 27.5 57 L 6.5 61 L 5 57.5 L 27.5 49 L 52.5 44 Z " /><path d="M 19.5 76 L 23 77.5 L 24 98.5 L 26 104.5 L 26 129.5 L 24 137.5 L 24 161.5 L 22.5 163 L 19 161.5 L 20 122.5 L 19 121.5 L 19 102.5 L 18 101.5 L 18 77.5 L 19.5 76 Z " /></svg>