<svg width="127" height="210" version="1.1" xmlns="http://www.w3.org/2000/svg" desc="Created with imagetracer.js version 1.2.5" ><path d="M 118.5 34 Q 122.3 33.3 123 35.5 L 121.5 39 L 91.5 46 L 78.5 46 L 57.5 51 L 52.5 51 L 41.5 54 L 21.5 57 L 20 53.5 L 24.5 50 L 44.5 45 L 66.5 44 L 77.5 41 L 90.5 41 Q 97 38 106.5 38 L 118.5 34 Z " /><path d="M 6.5 52 L 10 53.5 L 16 71.5 L 12.5 73 L 5 53.5 L 6.5 52 Z " /><path d="M 32.5 69 L 36 70.5 L 34 102.5 L 35.5 102 Q 41.8 103.8 43.5 101 L 89.5 101 L 97.5 99 L 99 102.5 L 90.5 106 L 71.5 106 L 70.5 107 L 45.5 109 L 34 111 L 36 117.5 L 34 119.5 L 33 127.5 L 21 165 Q 36.5 165.3 48.5 161 L 82.5 161 L 83.5 162 L 92.5 162 L 97.5 164 L 108.5 164 L 110 165.5 L 108.5 169 L 97.5 169 L 92.5 167 L 83.5 167 L 82.5 166 L 48.5 166 L 29.5 170 L 18.5 170 Q 15.3 167.7 16 161.5 L 28 127.5 L 28 112 Q 22.6 113.5 21 110.5 L 22.5 107 L 29 103.5 L 29 80.5 L 30 79.5 L 30 71.5 L 32.5 69 Z " /></svg>