<svg width="128" height="210" version="1.1" xmlns="http://www.w3.org/2000/svg" desc="Created with imagetracer.js version 1.2.5" ><path d="M 100.5 30 L 108.5 30 L 117 34.5 L 115.5 38 L 111.5 38 L 107.5 35 L 101.5 35 L 90.5 38 L 85.5 38 L 69.5 44 L 58.5 44 L 16 53 L 15 83.5 L 14 84.5 L 14 111.5 L 10 132.5 L 10 152.5 L 12 162.5 L 20.5 175 L 24 177.5 L 22.5 181 Q 16.2 180.4 14 175.5 L 6 159.5 Q 7.5 154 5 152.5 L 5 131.5 L 9 110.5 L 9 49.5 L 13.5 43 L 17 44.5 Q 15.7 48.7 20.5 47 L 25.5 45 L 56.5 39 L 68.5 39 L 84.5 33 L 90.5 33 L 100.5 30 Z " /><path d="M 120.5 95 L 124 96.5 L 122.5 100 L 101.5 107 L 64.5 114 L 25.5 115 Q 19 113.5 16 108.5 L 17.5 105 L 70.5 108 L 108.5 100 L 120.5 95 Z " /></svg>