<svg width="143" height="210" version="1.1" xmlns="http://www.w3.org/2000/svg" desc="Created with imagetracer.js version 1.2.5" ><path d="M 74.5 31 L 77.5 32 L 81.5 31 L 83 34.5 L 38 56.5 L 22 77.5 L 14 93.5 L 10 104.5 L 10 122.5 L 14 138.5 L 19.5 146 L 37.5 158 L 54.5 163 L 59.5 166 L 80.5 167 L 89.5 164 L 97 159 L 98.5 155 L 102 156.5 Q 103 162 99.5 163 L 92.5 168 L 80.5 172 L 64.5 172 L 34.5 162 Q 21.7 155.3 12 145.5 L 6 129.5 L 5 103.5 L 16 77.5 L 34 53.5 L 40.5 47 L 74.5 31 Z " /><path d="M 38.5 104 L 81.5 109 L 89.5 107 L 98.5 107 L 110.5 112 L 124.5 112 L 130 115.5 L 134 127.5 L 134 140.5 L 138 159.5 L 138 198.5 L 139 202.5 L 135.5 204 L 133 199.5 L 133 159.5 L 129 140.5 L 129 128.5 L 127 120.5 L 123.5 117 L 109.5 117 Q 103.4 111.1 90.5 112 L 73.5 116 L 57.5 117 L 56.5 116 L 44.5 115 L 37 109.5 Q 36 105 38.5 104 Z " /></svg>