<svg width="136" height="210" version="1.1" xmlns="http://www.w3.org/2000/svg" desc="Created with imagetracer.js version 1.2.5" ><path d="M 48.5 34 L 52 35.5 L 42 89.5 L 40 109 L 42.5 108 L 51.5 108 L 52.5 107 L 71.5 106 L 72.5 105 L 113.5 105 L 115 108.5 L 113.5 110 L 72.5 110 L 71.5 111 L 40 114 L 40 128.5 L 41 129.5 L 46 169.5 L 50 186.5 L 46.5 188 L 44 183.5 L 40 163.5 L 40 157.5 L 35 128.5 L 35 115 L 22.5 117 L 15.5 117 L 14.5 118 L 6.5 118 L 5 114.5 L 11.5 112 L 35 110 L 36 96.5 L 37 95.5 L 37 79.5 L 39 71.5 L 41 50.5 L 44 38.5 L 48.5 34 Z " /><path d="M 128.5 34 L 132 35.5 L 129 59.5 L 126 72.5 L 126 78.5 L 125 79.5 L 123 139.5 L 115 178.5 L 114 192.5 L 113 193.5 L 113 206.5 L 114 210 L 109 210 L 109 208.5 L 108 207.5 L 108 193.5 L 109 192.5 L 111 171.5 L 114 161.5 L 118 138.5 L 118 129.5 L 119 128.5 L 119 90.5 L 120 89.5 L 120 76.5 L 121 75.5 L 122 57.5 L 125 41.5 L 128.5 34 Z " /></svg>