<svg width="118" height="210" version="1.1" xmlns="http://www.w3.org/2000/svg" desc="Created with imagetracer.js version 1.2.5" ><path d="M 95.5 19 L 108.5 20 L 114 24.5 L 112.5 28 L 103.5 24 L 96.5 24 L 70.5 31 L 40.5 35 L 16.5 40 L 6.5 40 L 5 36.5 L 10.5 34 L 22.5 33 L 65.5 25 L 76.5 24 L 95.5 19 Z " /><path d="M 53.5 37 L 57 38.5 L 58 97.5 L 60 108.5 L 60 163.5 L 52.5 175 Q 47.3 180.3 36.5 180 L 21.5 175 L 9 164.5 L 6 156.5 L 6 151.5 L 9.5 144 L 13 145.5 L 11 155.5 Q 12.8 163.2 18.5 167 L 24.5 171 L 40.5 175 L 45.5 174 L 51 170 L 55 161.5 L 55 109.5 L 54 108.5 L 54 99.5 L 53 98.5 L 53 89.5 L 51 78.5 L 51 57.5 L 52 56.5 L 52 38.5 L 53.5 37 Z " /></svg>