<svg width="133" height="210" version="1.1" xmlns="http://www.w3.org/2000/svg" desc="Created with imagetracer.js version 1.2.5" ><path d="M 13.5 56 L 17 57.5 L 15 89.5 L 14 90.5 L 14 102.5 L 13 103.5 L 13 113.5 L 12 114.5 L 10 139.5 L 11 140.5 L 13 161.5 L 16 167.5 L 21 185.5 L 17.5 187 L 15 183.5 L 8 161.5 L 6 140.5 L 5 139.5 L 5 131.5 L 6 130.5 L 8 103.5 L 9 102.5 L 11 65.5 Q 13.8 63.8 12 57.5 L 13.5 56 Z " /><path d="M 86.5 66 L 90 67.5 L 90 69.5 L 56.5 103 L 39 115.5 L 43.5 121 L 51.5 128 L 83.5 143 L 105.5 159 Q 114.5 164 127.5 165 L 129 166.5 L 127.5 170 Q 112.8 168.7 102.5 163 L 80.5 147 L 48.5 132 L 33 117.5 L 33 114.5 L 38.5 109 L 53.5 99 L 86.5 66 Z " /></svg>