<svg width="124" height="210" version="1.1" xmlns="http://www.w3.org/2000/svg" desc="Created with imagetracer.js version 1.2.5" ><path d="M 10.5 45 L 14 46.5 L 13 60 L 15.5 60 L 52.5 95 L 66.5 104 L 79.5 106 L 81 107.5 L 79.5 111 L 74.5 111 L 63.5 108 L 49.5 99 L 13.5 65 L 12 71.5 L 12 85.5 L 11 86.5 L 11 141.5 L 10 142.5 L 10 158.5 L 14 181.5 L 10.5 183 L 8 178.5 L 6 167.5 L 5 142.5 L 6 141.5 L 6 86.5 L 7 85.5 L 8 55.5 L 9 54.5 L 9 46.5 L 10.5 45 Z " /><path d="M 110.5 52 L 114 53.5 L 114.5 56 L 118.5 55 L 120 56.5 L 120 70.5 L 116 83.5 L 116 88.5 L 110 116.5 L 110 125.5 L 109 126.5 L 109 153.5 L 107.5 155 L 104 153.5 L 104 125.5 L 105 124.5 L 105 116.5 L 109 99.5 L 112 78.5 L 115 69.5 L 115 61 L 109.5 63 L 64.5 94 L 61.5 94 L 60 90.5 L 74.5 81 L 110.5 52 Z " /></svg>