<svg width="122" height="210" version="1.1" xmlns="http://www.w3.org/2000/svg" desc="Created with imagetracer.js version 1.2.5" ><path d="M 114.5 37 L 118 38.5 L 112 76.5 L 109 88.5 L 108 101.5 L 105 113.5 L 104 135.5 L 107 148.5 L 108 162.5 Q 105.8 163.7 107 168.5 L 105.5 170 L 102 168.5 L 103 155.5 L 99 135.5 L 99 120.5 L 100 119.5 L 100 112.5 L 103 100.5 L 104 87.5 L 106 81.5 L 110 53.5 L 112 47.5 L 112 42.5 L 114.5 37 Z " /><path d="M 23.5 57 L 27 58.5 L 21 95.5 L 19 101.5 L 19 106.5 L 13 128.5 L 12 149.5 L 10 159.5 L 10 174.5 L 12 181.5 L 12 200.5 L 15 207.5 L 11.5 209 L 7 201.5 L 7 182.5 Q 3.2 173.8 5 159.5 L 6 158.5 L 9 122.5 L 13 110.5 L 19 73.5 L 21 67.5 L 21 62.5 L 23.5 57 Z " /><path d="M 44.5 72 L 48 73.5 L 71 114.5 L 82 129.5 L 92 150.5 L 95 161.5 L 101 174.5 L 106.5 180 L 111 182.5 L 109.5 186 Q 100.6 184.4 97 177.5 L 91 164.5 L 88 153.5 L 79 134.5 L 65 114.5 L 45 79.5 L 43 73.5 L 44.5 72 Z " /></svg>