<svg width="117" height="210" version="1.1" xmlns="http://www.w3.org/2000/svg" desc="Created with imagetracer.js version 1.2.5" ><path d="M 64.5 55 L 68 56.5 L 66.5 60 L 28.5 76 L 21 82.5 Q 13.8 91.3 10 103.5 L 10 120.5 L 12 131.5 L 15 138.5 Q 21.6 150.4 31.5 159 L 43.5 167 L 52.5 169 L 68.5 169 L 82.5 164 L 96 151.5 Q 102.5 144 106 133.5 L 108 125.5 L 108 118.5 L 102 99.5 L 92 82 L 84 77.5 L 85.5 74 L 89.5 75 L 97 80.5 L 110 106.5 L 113 117.5 L 113 125.5 Q 109 147 95.5 159 L 85.5 168 L 79.5 171 L 68.5 174 L 52.5 174 L 37.5 170 L 19 153.5 L 10 140.5 L 7 132.5 L 6 121.5 L 5 120.5 L 5 103.5 Q 10.6 84.6 23.5 73 L 64.5 55 Z " /></svg>