<svg width="99" height="210" version="1.1" xmlns="http://www.w3.org/2000/svg" desc="Created with imagetracer.js version 1.2.5" ><path d="M 22.5 44 L 26 45.5 L 25 52 L 27.5 51 L 67.5 50 Q 81.6 52.9 90 61.5 L 95 72.5 L 95 85.5 L 92 96.5 L 85.5 105 Q 58.7 123.7 24.5 135 L 23 131.5 L 26.5 128 L 33.5 127 L 65.5 112 L 85 98.5 L 90 85.5 L 90 73.5 L 86 64 L 76.5 58 L 67.5 55 L 50.5 55 L 49.5 56 L 28.5 56 L 24 57 L 17 88.5 L 15 110.5 L 12 122.5 L 12 130.5 L 10 140.5 L 10 155.5 L 15 180.5 L 18 188 L 21 189.5 L 19.5 193 Q 14.8 192.8 13 189.5 L 6 163.5 L 5 140.5 L 6 139.5 L 7 121.5 L 11 103.5 L 12 88.5 L 19 57.5 L 14 55.5 L 15.5 52 Q 21.4 54.1 20 49.5 L 22.5 44 Z " /></svg>