<svg width="142" height="210" version="1.1" xmlns="http://www.w3.org/2000/svg" desc="Created with imagetracer.js version 1.2.5" ><path d="M 93.5 57 Q 97.3 56.3 98 58.5 L 96.5 62 L 88 63.5 L 102.5 70 L 117 83.5 L 131 104.5 L 134 114.5 L 134 128.5 L 132 139.5 L 127 151.5 L 118 164.5 L 108 174.5 L 127 198.5 L 138 209.5 L 131.5 210 L 103.5 177 Q 94.8 183.8 82.5 187 L 62.5 188 Q 39.1 182.9 25 168.5 L 10 148.5 L 7 139.5 L 5 119.5 L 11 101.5 Q 21 86.5 34.5 75 L 47.5 66 L 76.5 61 L 80.5 59 L 82.5 59 L 93.5 57 Z M 78 65 L 57 70 L 52 70 L 37 80 Q 24 91 15 105 L 10 121 L 12 139 L 16 150 L 30 167 Q 43 179 64 183 L 82 182 Q 92 179 100 174 L 99 172 Q 94 164 86 161 L 48 156 L 41 154 L 43 150 L 91 157 L 106 170 L 113 163 L 123 149 L 127 140 L 128 129 L 129 128 L 129 116 L 127 108 L 113 87 L 100 74 L 82 65 L 78 65 Z " /></svg>