<svg width="109" height="210" version="1.1" xmlns="http://www.w3.org/2000/svg" desc="Created with imagetracer.js version 1.2.5" ><path d="M 28.5 44 L 32 45.5 L 25 74.5 L 26.5 74 L 53.5 65 L 65.5 65 L 87.5 69 Q 95.9 72.6 101 79.5 Q 103.9 84.1 103 92.5 Q 100.4 103.4 92.5 109 L 68.5 124 L 42 132.5 L 72.5 156 L 86.5 169 L 105 181.5 L 103.5 185 L 91.5 179 L 55.5 149 L 31 131.5 L 32.5 128 L 41.5 128 L 69.5 118 L 85.5 108 L 93 101.5 Q 98.2 96.7 98 86.5 L 97 82.5 L 91.5 77 L 82.5 73 Q 72 73 64.5 70 L 53.5 70 L 23 81.5 L 20 93.5 L 17 131.5 L 16 132.5 L 16 142.5 L 14 152.5 L 14 175.5 L 16 182.5 L 12.5 184 L 10 180.5 L 9 175.5 L 9 151.5 L 11 141.5 L 15 92.5 L 18 83.5 L 15.5 83 L 6.5 86 L 5 82.5 L 20 75.5 L 26 48.5 L 28.5 44 Z " /></svg>