<svg width="106" height="210" version="1.1" xmlns="http://www.w3.org/2000/svg" desc="Created with imagetracer.js version 1.2.5" ><path d="M 96.5 58 Q 101 57 102 59.5 L 100.5 63 L 49.5 72 Q 38.1 76.1 31 84.5 L 23 99.5 L 22 112.5 Q 27.1 126.4 38.5 134 L 57.5 144 L 77 161.5 L 84 173.5 L 85 187.5 Q 83.9 194.9 78.5 198 Q 71.6 203.1 61.5 205 Q 56.7 203.7 55.5 206 L 36.5 206 L 22.5 202 Q 18.7 197.3 11.5 196 L 5 189.5 L 6.5 186 L 8.5 186 L 16.5 193 L 31.5 200 L 36.5 201 L 54.5 201 L 68.5 198 L 79 190.5 Q 81.3 185.8 80 177.5 Q 76.4 166.6 68.5 160 Q 55.2 145.8 35.5 138 L 22 124.5 L 17 112.5 L 17 102.5 Q 21.4 85.9 32.5 76 L 48.5 67 L 79.5 62 L 85.5 60 L 90.5 60 L 96.5 58 Z " /></svg>