<svg width="123" height="210" version="1.1" xmlns="http://www.w3.org/2000/svg" desc="Created with imagetracer.js version 1.2.5" ><path d="M 68.5 57 L 72.5 59 L 77.5 59 L 78.5 58 L 94.5 58 L 95.5 57 L 117.5 57 L 119 60.5 L 117.5 62 L 79.5 63 L 71 65 L 67 110.5 L 66 111.5 L 65 140.5 L 63 150.5 L 63 179.5 L 67 201.5 L 63.5 203 L 61 198.5 L 59 181.5 L 58 180.5 L 58 150.5 L 59 149.5 L 59 140.5 L 61 129.5 L 61 110.5 L 63 101.5 L 63 92.5 L 64 91.5 L 66 65 L 62.5 66 L 48.5 66 L 47.5 67 L 6.5 69 L 5 65.5 L 6.5 64 L 15.5 64 L 16.5 63 L 47.5 62 L 48.5 61 Q 60.2 62.2 67 60 L 68.5 57 Z " /></svg>