<svg width="120" height="210" version="1.1" xmlns="http://www.w3.org/2000/svg" desc="Created with imagetracer.js version 1.2.5" ><path d="M 8.5 84 L 12 85.5 L 11 122.5 L 10 123.5 L 10 172.5 L 13.5 182 L 27 170.5 L 35 158.5 L 42 143.5 L 49 122.5 L 49 117.5 L 50.5 116 L 53.5 116 L 63 122.5 L 87.5 154 L 94.5 160 L 99.5 161 Q 105.5 156.5 108 148.5 L 109 138.5 L 111 134.5 L 111 116.5 L 109 112.5 L 108 100.5 L 106 93.5 L 106 86.5 L 109.5 85 L 111 86.5 L 111 93.5 L 113 99.5 L 114 111.5 L 116 115.5 L 116 135.5 L 114 139.5 L 111 154.5 L 101.5 166 Q 94.5 167 91.5 164 L 81 154.5 L 57.5 124 L 54.5 123 L 52 126.5 L 47 144.5 L 38 163.5 Q 31.3 174.8 21.5 183 L 14.5 187 L 11.5 187 Q 6.4 182.1 5 173.5 L 5 123.5 L 6 122.5 L 7 85.5 L 8.5 84 Z " /></svg>