<svg width="99" height="210" version="1.1" xmlns="http://www.w3.org/2000/svg" desc="Created with imagetracer.js version 1.2.5" ><path d="M 66.5 56 L 70 57.5 L 51 115.5 L 46 126.5 L 64.5 146 L 89 167.5 Q 88.2 170.1 91.5 169 L 95 171.5 L 93.5 175 L 86.5 173 L 84 170.5 L 79.5 165 L 74.5 162 L 53 141.5 L 43.5 131 L 28 155.5 L 23 165.5 Q 21.8 175.3 17.5 182 L 14 180.5 L 19 162.5 L 37 132.5 L 39 126.5 L 5 91.5 L 5 89.5 L 8.5 88 L 41.5 122 Q 43.8 122.8 43 120.5 L 45 117.5 L 63 62.5 L 66.5 56 Z " /></svg>