<svg width="136" height="210" version="1.1" xmlns="http://www.w3.org/2000/svg" desc="Created with imagetracer.js version 1.2.5" ><path d="M 29.5 81 L 71.5 92 L 85.5 92 L 87 93.5 L 86 103.5 L 78 117.5 L 67 142.5 L 47 170.5 Q 30.4 185.9 17 204.5 L 22.5 205 L 28.5 203 L 44.5 201 L 57.5 196 L 61.5 196 L 82.5 190 L 116.5 178 L 130.5 175 L 132 178.5 L 130.5 180 Q 98.6 187.6 70.5 199 Q 55.4 200.4 44.5 206 L 28.5 208 L 22.5 210 L 5 210 L 7.5 206 L 15 199.5 Q 27.2 181.7 43 167.5 L 63 139.5 L 73 116.5 L 81 102.5 L 82 97 L 70.5 97 L 62.5 94 L 32.5 87 L 28 84.5 L 29.5 81 Z " /></svg>