<svg width="118" height="210" version="1.1" xmlns="http://www.w3.org/2000/svg" desc="Created with imagetracer.js version 1.2.5" ><path d="M 72.5 117 Q 79.2 115.2 81 118.5 L 79 122.5 L 79 126.5 Q 82.9 144.6 93.5 156 L 114 167.5 L 112.5 171 Q 96.5 167 87 156.5 Q 80.1 148.9 77.5 137 L 66 160.5 L 49.5 180 L 34.5 187 L 23.5 187 Q 14.8 184.2 10 177.5 L 5 165.5 L 5 155.5 Q 8.3 138.8 18.5 129 L 28.5 121 L 59.5 119 L 60.5 118 L 71.5 118 L 72.5 117 Z M 73 122 L 72 123 L 61 123 L 60 124 L 49 124 L 48 125 L 31 126 L 22 133 Q 13 142 10 156 L 10 166 L 14 175 Q 18 180 25 182 L 34 182 L 48 175 Q 66 157 74 130 L 74 123 L 73 122 Z " /></svg>