<svg width="78" height="210" version="1.1" xmlns="http://www.w3.org/2000/svg" desc="Created with imagetracer.js version 1.2.5" ><path d="M 31.5 61 L 35 62.5 L 22 115.5 L 21 128.5 L 17 145.5 L 19.5 144 L 41.5 130 L 47.5 128 L 52.5 128 Q 63.6 130.4 69 138.5 L 74 149.5 L 74 157.5 Q 72.4 164.4 66.5 167 L 42.5 175 L 34.5 175 L 33.5 176 L 6.5 176 L 5 172.5 L 6.5 171 L 33.5 171 L 34.5 170 L 46.5 169 L 63.5 163 L 69 157.5 L 68 146.5 L 59.5 136 L 52.5 133 L 47.5 133 L 40.5 136 L 21 149 L 15 158.5 L 14 164.5 L 12.5 166 L 9 164.5 L 9 157.5 L 15 133.5 L 17 114.5 L 27 77.5 L 29 65.5 L 31.5 61 Z " /></svg>