<svg width="54" height="210" version="1.1" xmlns="http://www.w3.org/2000/svg" desc="Created with imagetracer.js version 1.2.5" ><path d="M 26.5 74 L 40.5 74 L 50 81.5 Q 51.3 86.2 49 87.5 L 49 131.5 L 46 138.5 L 46 142.5 L 44 144.5 L 41 158.5 L 38 163.5 L 37 171 Q 34.3 169.9 35 172.5 L 32 180.5 L 28.5 184 L 26.5 185 L 14.5 185 Q 13.4 182.3 10 183 L 6 176.5 L 5 161.5 Q 6.5 158.5 8 161.5 L 9 175.5 L 12.5 180 Q 16 184 25.5 182 L 29 178.5 L 34 168.5 L 44 134.5 L 40.5 137 L 39 137 L 38.5 139 L 28.5 139 L 24 135.5 L 14 114.5 L 14 91.5 L 16 84.5 L 21.5 78 L 26.5 74 Z M 29 77 L 25 80 Q 19 84 17 93 L 17 114 L 27 135 Q 30 137 37 136 L 42 131 L 46 122 L 46 85 L 47 82 L 45 81 Q 42 82 43 79 Q 39 75 29 77 Z " /></svg>