<svg width="48" height="210" version="1.1" xmlns="http://www.w3.org/2000/svg" desc="Created with imagetracer.js version 1.2.5" ><path d="M 11.5 33 L 13 34.5 L 13 44.5 L 12 45.5 L 12 66.5 L 11 67.5 L 11 97.5 L 12.5 97 L 15.5 97 L 21.5 94 L 30 88 L 34.5 82 L 37 80.5 L 39 77.5 L 41.5 74 L 44 75.5 L 42 81 L 39 82.5 Q 39.8 84.8 37.5 84 L 31.5 91 L 27 93 Q 28.1 95.7 25.5 95 L 23.5 97 L 14 100 L 28 118.5 L 29 122 L 32 123.5 L 42 137.5 L 42 144 L 39 142.5 L 36 133.5 L 26 122.5 L 25 119 L 22 117.5 L 15 106 L 11.5 104 L 11 118.5 L 9 123.5 L 9 138.5 L 8 139.5 L 8 149 L 5 147.5 L 6 122.5 L 8 117.5 L 9 44.5 L 10 43.5 L 10 34.5 L 11.5 33 Z " /></svg>