<svg width="91" height="210" version="1.1" xmlns="http://www.w3.org/2000/svg" desc="Created with imagetracer.js version 1.2.5" ><path d="M 14.5 71 Q 24 69 26 74.5 L 27.5 85 L 33.5 80 L 38.5 80 L 43.5 77 L 53.5 77 Q 57.6 81.1 56 90 L 59 88.5 L 66.5 80 Q 71.7 79.7 73.5 76 L 83.5 76 L 85 77.5 L 85 92.5 L 87 101.5 L 87 147 L 84 145.5 L 84 102.5 L 82 93.5 L 82 79 L 75.5 79 L 75 81 L 72.5 81 Q 65 84 61 90.5 Q 61.8 92.8 59.5 92 L 57 95.5 L 57 106.5 L 59 116.5 L 59 144 L 56 142.5 L 56 117.5 L 54 107.5 L 53 82.5 L 52 80 L 44.5 80 L 40.5 83 L 35.5 83 L 27 90.5 L 28 92.5 L 28 142 L 25 140.5 L 25 94.5 L 24 93.5 L 23 75.5 L 21.5 74 L 16.5 74 Q 13.6 78.6 6.5 79 Q 3 77 7.5 75 Q 12.7 74.7 14.5 71 Z " /></svg>