<svg width="62" height="210" version="1.1" xmlns="http://www.w3.org/2000/svg" desc="Created with imagetracer.js version 1.2.5" ><path d="M 21.5 75 L 31.5 75 L 33 76.5 L 36.5 81 L 42.5 83 L 52 89.5 L 58 100.5 L 58 122.5 L 57 127 L 53 129.5 L 50.5 133 Q 48.3 132.3 49 134.5 L 45.5 137 L 19.5 137 Q 10.9 134.6 7 127.5 L 5 124.5 L 5 91.5 L 13.5 79 L 21.5 75 Z M 24 78 L 17 81 L 11 88 Q 12 90 9 89 L 8 94 L 8 123 L 10 127 Q 13 132 21 134 L 44 134 L 46 133 L 51 127 L 54 125 L 55 121 L 55 102 L 49 92 L 30 79 L 24 78 Z " /></svg>