<svg width="65" height="210" version="1.1" xmlns="http://www.w3.org/2000/svg" desc="Created with imagetracer.js version 1.2.5" ><path d="M 18.5 72 L 39.5 72 L 48 77.5 Q 47.3 79.8 49.5 79 L 60 93.5 L 61 115.5 L 56 122.5 L 56 125 Q 53.3 123.9 54 126.5 L 48 131 L 46.5 134 L 27.5 144 L 14 144 L 10 161.5 L 10 171.5 L 8 178.5 L 8 185 L 5 183.5 L 5 177.5 L 7 169.5 L 7 160.5 L 11 144.5 L 11 77.5 L 10 75.5 L 12.5 73 Q 17.3 74.2 18.5 72 Z M 21 75 L 20 76 Q 14 75 14 77 L 14 141 L 29 140 L 44 131 Q 46 132 45 130 L 48 128 L 58 114 L 57 95 L 49 82 L 39 75 L 21 75 Z " /></svg>