<svg width="74" height="210" version="1.1" xmlns="http://www.w3.org/2000/svg" desc="Created with imagetracer.js version 1.2.5" ><path d="M 7.5 72 Q 14.8 70.8 16 75.5 L 16 84 L 31.5 84 L 53.5 72 L 55 73.5 L 55 83.5 L 52 87.5 L 49 100.5 L 49 105.5 L 47 110.5 L 46 132 L 57.5 136 L 67.5 136 Q 68.8 133.7 70 136.5 L 69.5 139 L 56.5 139 L 51.5 138 L 43 132.5 L 44 109.5 L 49 86.5 L 52 81.5 L 52 77.5 L 50.5 78 L 46.5 81 L 43.5 81 L 37 84 Q 38.3 87 34.5 86 L 33.5 87 L 16 87 L 16 110.5 L 11 121.5 L 11 129.5 L 8 137.5 L 8 144 L 5 142.5 L 5 136.5 L 7 133.5 Q 5.8 128.8 8 127.5 L 8 120.5 L 13 108.5 L 13 86 Q 8.3 85.6 6 81.5 L 6 73.5 L 7.5 72 Z M 9 75 L 9 81 L 13 83 L 13 78 L 9 75 Z " /></svg>