<svg width="76" height="210" version="1.1" xmlns="http://www.w3.org/2000/svg" desc="Created with imagetracer.js version 1.2.5" ><path d="M 70.5 73 Q 73 74 72 78.5 L 63 96.5 L 61 101.5 L 61 105.5 L 57 111.5 L 55 121 Q 52 119.8 53 123.5 L 50 129 Q 47 127.8 48 131.5 L 38.5 144 L 35 142.5 L 23 118.5 L 16 95.5 L 9.5 84 Q 7.3 84.8 8 82.5 L 7 79 Q 3.7 80.3 5 75.5 Q 6.5 72.5 8 75.5 L 19 94.5 L 26 117.5 L 33 129.5 L 35 136.5 L 37.5 139 L 52 118.5 Q 53 109.5 58 104.5 L 58 99.5 L 60 94.5 L 67 83.5 L 67 80.5 L 70.5 73 Z " /></svg>