<svg width="75" height="210" version="1.1" xmlns="http://www.w3.org/2000/svg" desc="Created with imagetracer.js version 1.2.5" ><path d="M 61.5 75 L 64 76.5 Q 64.8 78.8 62.5 78 L 51 92.5 L 47 101.5 L 42 106.5 L 42 110 Q 44.7 108.9 44 111.5 L 47.5 116 Q 49.8 115.3 49 117.5 L 52.5 123 L 63 131.5 Q 62.3 133.8 64.5 133 L 71 138.5 Q 72.3 142.3 68.5 141 L 60 135 L 58.5 132 L 48 123.5 L 46 118 L 42 115.5 L 40.5 112 L 34.5 120 Q 32.3 119.3 33 121.5 L 30.5 125 L 27.5 127 L 18 135.5 L 16 141 Q 11.1 142.8 13 136.5 L 21.5 127 L 30 120.5 L 38 108.5 L 34 106 L 33 102 L 29 101 L 29 98.5 L 19.5 87 L 9.5 80 L 5 79 L 6.5 76 Q 18 79.5 25 87.5 L 32 96.5 L 32 99 L 36 100 L 37 104 L 39.5 105 L 59 76 L 61.5 75 Z " /></svg>