<svg width="64" height="210" version="1.1" xmlns="http://www.w3.org/2000/svg" desc="Created with imagetracer.js version 1.2.5" ><path d="M 6.5 26 L 20.5 29 L 32.5 37 L 38 42.5 L 49.5 57 L 52 58.5 L 60 72.5 L 60 95.5 L 58 104.5 Q 51.6 110.9 49 120 L 46 121.5 L 44 126 Q 41.3 124.9 42 127.5 L 41 130 L 35 133.5 L 32.5 137 L 20.5 144 Q 12.3 142.3 8.5 145 L 7 143.5 L 7 113.5 L 6 112.5 L 6 31.5 L 7.5 29 L 5 27.5 L 6.5 26 Z M 9 30 L 9 32 L 9 112 L 10 113 L 10 141 L 19 141 L 30 135 L 33 130 L 38 128 L 47 117 L 55 103 L 57 95 L 57 74 L 55 73 L 50 62 L 35 44 L 19 32 Q 15 29 9 30 Z " /></svg>