<svg width="78" height="210" version="1.1" xmlns="http://www.w3.org/2000/svg" desc="Created with imagetracer.js version 1.2.5" ><path d="M 43.5 31 L 69.5 31 L 71 32.5 L 70.5 34 L 45.5 34 L 36 39 Q 37.1 41.7 34.5 41 L 28 46.5 L 26.5 49 L 19 55.5 L 14 63.5 L 14 67 L 10 69 L 10 74.5 L 8 80.5 L 8 111.5 L 11 117.5 L 20.5 129 L 28.5 134 L 36.5 136 L 43.5 136 L 47 131.5 L 47 113.5 L 42.5 109 L 40 109 L 43.5 104 L 72.5 100 L 74 101.5 L 74 111.5 L 72 121.5 L 72 139 L 69 137.5 L 69 120.5 L 70 119.5 L 71 103.5 L 69.5 104 L 46 106 L 50 112.5 L 50 133.5 L 45.5 139 L 35.5 139 L 27.5 137 L 16 129.5 L 8 119.5 L 5 112.5 L 5 79.5 L 7 73.5 L 7 68.5 L 11 64.5 L 17 52.5 L 22.5 47 L 26 44.5 L 27.5 42 L 43.5 31 Z " /></svg>