<svg width="61" height="210" version="1.1" xmlns="http://www.w3.org/2000/svg" desc="Created with imagetracer.js version 1.2.5" ><path d="M 6.5 30 L 8 31.5 L 8 65.5 L 9 66.5 L 9 76.5 L 11.5 88 L 14.5 84 L 31 68.5 L 44 49.5 L 51.5 30 L 54 31.5 L 47 51.5 L 43 55.5 L 38 65.5 L 25.5 79 Q 23.3 78.3 24 80.5 L 15 88.5 L 14 90.5 L 27.5 94 L 43 106.5 L 50 124.5 L 50 127.5 L 56 135.5 L 57 143 Q 52.9 144.7 54 140.5 Q 52.4 132.6 47 128.5 Q 44.7 115.3 38.5 106 L 21.5 95 L 12 94 L 13 96.5 L 13 144 L 10 142.5 L 10 97.5 L 8 93.5 L 8 85.5 L 6 77.5 L 6 67.5 L 5 66.5 L 5 31.5 L 6.5 30 Z " /></svg>