<svg width="115" height="210" version="1.1" xmlns="http://www.w3.org/2000/svg" desc="Created with imagetracer.js version 1.2.5" ><path d="M 6.5 29 L 8 30.5 L 8 41.5 L 14 54.5 L 14 60.5 L 19 73.5 L 21 88.5 Q 25.5 95.5 26 106.5 L 29 110.5 L 33 121.5 L 33 126.5 L 36.5 137 L 42 129.5 L 42 125.5 L 45 121.5 L 45 118.5 L 48 112.5 L 57.5 99 L 62 101 L 79.5 135 L 86 118.5 L 86 113.5 Q 90.3 108.3 91 99.5 L 93 97.5 L 95 78.5 L 99 67.5 L 100 54.5 L 103 49.5 L 106 35.5 L 109.5 30 Q 112 31 111 35.5 L 107 43.5 L 106 52 Q 102.7 50.7 104 55.5 L 102 60.5 L 101 74 Q 97 72.6 99 79.5 L 96 92.5 L 96 100 Q 93 98.8 94 102.5 L 91 112.5 L 89 114.5 L 89 119.5 Q 84.4 124.9 84 134.5 L 80.5 139 Q 76.8 139.8 76 137.5 L 74 130.5 L 62 106.5 L 58.5 103 L 49 117.5 L 48 123.5 L 45 127.5 L 43 136 Q 40.3 134.9 41 137.5 Q 37 138.9 38 144 L 34 142.5 L 33 134.5 L 30 127.5 L 30 122.5 L 28 120.5 L 28 116.5 L 26 111.5 L 23 107.5 Q 22.5 96.5 18 89.5 L 16 74.5 L 11 61.5 L 11 55.5 L 5 42.5 L 5 30.5 L 6.5 29 Z " /></svg>