<svg width="98" height="210" version="1.1" xmlns="http://www.w3.org/2000/svg" desc="Created with imagetracer.js version 1.2.5" ><path d="M 6.5 28 Q 15.4 31.6 21 38.5 L 23.5 43 Q 25.8 42.3 25 44.5 L 30.5 51 Q 33.1 50.2 32 53.5 L 35 55 L 36.5 58 Q 38.8 57.3 38 59.5 L 43 63.5 L 52 77 Q 55 78.3 54 74.5 L 60 61 L 63 59.5 L 79.5 29 Q 82.9 28.1 81 33.5 L 76 40.5 L 65 63 L 62 64.5 Q 57.4 70.3 57 79 Q 54.3 77.9 55 80.5 L 66 95.5 L 70 104.5 L 77 113.5 L 79 119.5 L 93 136.5 L 94 141 L 90 139.5 L 82 127.5 L 76 121.5 L 74 115.5 L 53.5 84 L 48 91.5 L 37 115.5 L 31 122.5 L 25 139 Q 20.5 140.8 22 135.5 Q 26.5 129.5 28 120.5 L 35 112.5 L 35 109.5 L 47 86.5 L 50 83.5 L 51 79 Q 48.3 80.1 49 77.5 L 44 74 L 41 66 Q 38.3 67.1 39 64.5 L 36 63 Q 37.1 60.3 34.5 61 L 32 57 Q 29.3 58.1 30 55.5 L 29 53 L 26 51.5 L 22 45 L 19 43.5 L 16.5 39 L 8.5 32 L 5 31 L 6.5 28 Z " /></svg>