<svg width="73" height="210" version="1.1" xmlns="http://www.w3.org/2000/svg" desc="Created with imagetracer.js version 1.2.5" ><path d="M 6.5 29 L 12 33.5 L 14 38.5 L 23 48.5 L 24 52 L 25.5 52 L 35 61.5 L 39.5 68 L 42 69.5 L 43 73 L 48.5 75 L 54 60.5 L 55 53.5 L 64 36.5 L 64 33.5 L 67.5 29 L 69 32.5 L 58 54.5 L 52 77.5 L 47 87.5 L 46 93.5 L 41 102.5 L 40 109 Q 37.3 107.9 38 110.5 Q 36.6 117.1 32 120.5 L 31 128.5 L 23.5 144 L 21 142.5 Q 22.9 132.9 28 126.5 L 28 121.5 L 34 109.5 L 37 106.5 Q 37.8 98.8 42 94.5 Q 42.9 86.4 47 81.5 L 47 77 Q 42.1 77.1 40 73.5 L 32 64.5 L 32 62 L 29 60.5 Q 29.8 58.3 27.5 59 Q 14.6 46.4 5 30.5 L 6.5 29 Z " /></svg>