<svg width="105" height="210" version="1.1" xmlns="http://www.w3.org/2000/svg" desc="Created with imagetracer.js version 1.2.5" ><path d="M 8.5 30 L 14.5 32 L 32.5 33 L 33.5 34 L 76.5 34 L 79.5 33 L 81 36 L 78 37.5 Q 79.1 40.8 76.5 40 L 61 59.5 L 60 64 L 57 65.5 L 48.5 79 Q 46.3 78.3 47 80.5 L 38 91.5 L 38 93.5 L 31 102.5 L 30 106.5 L 23 115.5 L 21 121.5 Q 13.5 127.7 10 137 L 28.5 134 L 37.5 134 L 38.5 133 L 55.5 133 L 66.5 136 L 99.5 136 L 101 137.5 L 100.5 139 L 65.5 139 L 54.5 136 L 39.5 136 L 38.5 137 L 22.5 138 L 17.5 140 L 6.5 140 L 5 137.5 L 18 119.5 L 22 110.5 L 28 103.5 L 28 101.5 L 37 87.5 L 48 74.5 L 48 72.5 L 55 62 L 58 60.5 L 59 56.5 L 72 39 L 75 37.5 L 32.5 37 L 31.5 36 L 13.5 35 L 7 32.5 L 8.5 30 Z " /></svg>