<svg width="72" height="210" version="1.1" xmlns="http://www.w3.org/2000/svg" desc="Created with imagetracer.js version 1.2.5" ><path d="M 18.5 75 L 34.5 75 L 39 79.5 L 43 86.5 L 44 91.5 L 44 105.5 L 46 107.5 L 46 125.5 L 53.5 135 L 55.5 136 L 66.5 136 L 68 137.5 L 67.5 139 L 54.5 139 L 49 135.5 Q 49.8 133.3 47.5 134 L 44 127 L 42 127 L 42 131 L 40.5 131 L 34.5 139 L 17.5 139 L 8 131.5 L 5 127.5 L 5 103.5 L 10 86.5 L 18.5 75 Z M 21 78 L 13 89 L 13 92 L 8 105 L 8 126 L 11 131 L 19 136 L 33 136 L 37 131 Q 36 128 39 129 L 41 123 L 41 93 L 40 88 L 35 80 L 35 78 L 21 78 Z " /></svg>